# xmcd
#
# Track frame offsets:
#	150
#	18193
#	35800
#	55210
#	71765
#	91351
#	108654
#	122189
#
# Disc length: 1793 seconds
#
# Revision: 0
# Processed by: cddbd v1.5.2PL0 Copyright (c) Steve Scherf et al.
# Submitted via: EasyCDDAExtractor 16.0.8.1
#
DISCID=6f06ff08
DTITLE=Per Gessle - En Vacker Dag
DYEAR=2017
DGENRE=Pop
TTITLE0=En Vacker Dag
TTITLE1=Det Är Vi Tillsammans (Duett Med John Holm)
TTITLE2=Känns Som Första Gången (Duett Med Linnea Henriksson)
TTITLE3=Trodde Inte Mina Ögon
TTITLE4=Parentes
TTITLE5=Känn Dej Som Hemma
TTITLE6=Ge Allt Du Kan
TTITLE7=Fyrklöver
EXTD=
EXTT0=
EXTT1=
EXTT2=
EXTT3=
EXTT4=
EXTT5=
EXTT6=
EXTT7=
PLAYORDER=
